<?xml version="1.0" encoding="UTF-8"?>
<svg xmlns="http://www.w3.org/2000/svg" viewBox="0 0 1500 1000" width="1500" height="1000">
<title>Croatia</title><defs>
<clipPath id="flagClip"><path d="M30,80 C 250,40 500,140 750,90 C 1000,40 1250,150 1470,100 L 1480,920 C 1250,870 1000,960 750,910 C 500,860 250,960 30,920 Z"></path></clipPath>
<linearGradient id="folds" x1="0" y1="0" x2="1" y2="0">
<stop offset="0%" stop-color="#000" stop-opacity=".35"></stop><stop offset="6%" stop-color="#000" stop-opacity=".05"></stop><stop offset="14%" stop-color="#000" stop-opacity=".30"></stop><stop offset="22%" stop-color="#000" stop-opacity="0"></stop><stop offset="34%" stop-color="#000" stop-opacity=".18"></stop><stop offset="46%" stop-color="#000" stop-opacity="0"></stop><stop offset="58%" stop-color="#000" stop-opacity=".22"></stop><stop offset="70%" stop-color="#000" stop-opacity="0"></stop><stop offset="82%" stop-color="#000" stop-opacity=".20"></stop><stop offset="92%" stop-color="#000" stop-opacity="0"></stop><stop offset="100%" stop-color="#000" stop-opacity=".30"></stop>
</linearGradient>
<linearGradient id="foldsV" x1="0" y1="0" x2="0" y2="1">
<stop offset="0%" stop-color="#000" stop-opacity=".25"></stop><stop offset="15%" stop-color="#000" stop-opacity="0"></stop><stop offset="50%" stop-color="#000" stop-opacity=".08"></stop><stop offset="85%" stop-color="#000" stop-opacity="0"></stop><stop offset="100%" stop-color="#000" stop-opacity=".28"></stop>
</linearGradient>
<linearGradient id="shine" x1="0" y1="0" x2="1" y2="0.2">
<stop offset="0%" stop-color="#fff" stop-opacity="0"></stop><stop offset="20%" stop-color="#fff" stop-opacity=".18"></stop><stop offset="35%" stop-color="#fff" stop-opacity="0"></stop><stop offset="55%" stop-color="#fff" stop-opacity=".22"></stop><stop offset="70%" stop-color="#fff" stop-opacity="0"></stop><stop offset="88%" stop-color="#fff" stop-opacity=".15"></stop><stop offset="100%" stop-color="#fff" stop-opacity="0"></stop>
</linearGradient>
<pattern id="silk" width="14" height="14" patternUnits="userSpaceOnUse" patternTransform="rotate(20)">
<rect width="14" height="14" fill="transparent"></rect>
<line x1="0" y1="0" x2="0" y2="14" stroke="#fff" stroke-opacity=".04" stroke-width="1"></line>
<line x1="7" y1="0" x2="7" y2="14" stroke="#000" stroke-opacity=".04" stroke-width="1"></line>
</pattern>
<filter id="dropshadow" x="-5%" y="-5%" width="110%" height="115%">
<feGaussianBlur in="SourceAlpha" stdDeviation="6"></feGaussianBlur><feOffset dx="3" dy="6"></feOffset>
<feComponentTransfer><feFuncA type="linear" slope=".35"></feFuncA></feComponentTransfer>
<feMerge><feMergeNode></feMergeNode><feMergeNode in="SourceGraphic"></feMergeNode></feMerge>
</filter>
</defs>
<g filter="url(#dropshadow)"><g clip-path="url(#flagClip)"><rect width="1500" height="333" fill="#FF0000"></rect><rect y="333" width="1500" height="334" fill="#FFF"></rect><rect y="667" width="1500" height="333" fill="#171796"></rect>
<g transform="translate(750,500)">
  
  <g>
    <path d="M-110,-110 L110,-110 L110,80 Q110,140 0,180 Q-110,140 -110,80 Z" fill="#FFF" stroke="#1E2A78" stroke-width="2"></path>
    <g>
      <rect x="-110" y="-110" width="44" height="44" fill="#FF0000"></rect><rect x="-66" y="-110" width="44" height="44" fill="#FFF"></rect><rect x="-22" y="-110" width="44" height="44" fill="#FF0000"></rect><rect x="22" y="-110" width="44" height="44" fill="#FFF"></rect><rect x="66" y="-110" width="44" height="44" fill="#FF0000"></rect><rect x="-110" y="-66" width="44" height="44" fill="#FFF"></rect><rect x="-66" y="-66" width="44" height="44" fill="#FF0000"></rect><rect x="-22" y="-66" width="44" height="44" fill="#FFF"></rect><rect x="22" y="-66" width="44" height="44" fill="#FF0000"></rect><rect x="66" y="-66" width="44" height="44" fill="#FFF"></rect><rect x="-110" y="-22" width="44" height="44" fill="#FF0000"></rect><rect x="-66" y="-22" width="44" height="44" fill="#FFF"></rect><rect x="-22" y="-22" width="44" height="44" fill="#FF0000"></rect><rect x="22" y="-22" width="44" height="44" fill="#FFF"></rect><rect x="66" y="-22" width="44" height="44" fill="#FF0000"></rect><rect x="-110" y="22" width="44" height="44" fill="#FFF"></rect><rect x="-66" y="22" width="44" height="44" fill="#FF0000"></rect><rect x="-22" y="22" width="44" height="44" fill="#FFF"></rect><rect x="22" y="22" width="44" height="44" fill="#FF0000"></rect><rect x="66" y="22" width="44" height="44" fill="#FFF"></rect><rect x="-110" y="66" width="44" height="44" fill="#FF0000"></rect><rect x="-66" y="66" width="44" height="44" fill="#FFF"></rect><rect x="-22" y="66" width="44" height="44" fill="#FF0000"></rect><rect x="22" y="66" width="44" height="44" fill="#FFF"></rect><rect x="66" y="66" width="44" height="44" fill="#FF0000"></rect>
    </g>
    
    <path d="M-110,-110 L110,-110 L110,80 Q110,140 0,180 Q-110,140 -110,80 Z" fill="none" stroke="#1E2A78" stroke-width="6"></path>
  </g>
  
  <g transform="translate(0,-145)">
    <g transform="translate(-100,0)">
        <path d="M-22,8 L22,8 L18,-12 L0,-2 L-18,-12 Z" fill="#0093DD" stroke="#1E2A78" stroke-width="1.5"></path>
        <g fill="#FFD100"><polygon points="0.0,-9.0 1.8,-4.4 6.7,-4.2 2.9,-1.1 4.1,3.7 0.0,1.0 -4.1,3.7 -2.9,-1.1 -6.7,-4.2 -1.8,-4.4"></polygon></g>
      </g><g transform="translate(-50,0)">
        <path d="M-22,8 L22,8 L18,-12 L0,-2 L-18,-12 Z" fill="#FFF" stroke="#1E2A78" stroke-width="1.5"></path>
        <g fill="#FF0000"><polygon points="0.0,-9.0 1.8,-4.4 6.7,-4.2 2.9,-1.1 4.1,3.7 0.0,1.0 -4.1,3.7 -2.9,-1.1 -6.7,-4.2 -1.8,-4.4"></polygon></g>
      </g><g transform="translate(0,0)">
        <path d="M-22,8 L22,8 L18,-12 L0,-2 L-18,-12 Z" fill="#0093DD" stroke="#1E2A78" stroke-width="1.5"></path>
        <g fill="#0093DD"><polygon points="0.0,-9.0 1.8,-4.4 6.7,-4.2 2.9,-1.1 4.1,3.7 0.0,1.0 -4.1,3.7 -2.9,-1.1 -6.7,-4.2 -1.8,-4.4"></polygon></g>
      </g><g transform="translate(50,0)">
        <path d="M-22,8 L22,8 L18,-12 L0,-2 L-18,-12 Z" fill="#FFD100" stroke="#1E2A78" stroke-width="1.5"></path>
        <g fill="#FF0000"><polygon points="0.0,-9.0 1.8,-4.4 6.7,-4.2 2.9,-1.1 4.1,3.7 0.0,1.0 -4.1,3.7 -2.9,-1.1 -6.7,-4.2 -1.8,-4.4"></polygon></g>
      </g><g transform="translate(100,0)">
        <path d="M-22,8 L22,8 L18,-12 L0,-2 L-18,-12 Z" fill="#0093DD" stroke="#1E2A78" stroke-width="1.5"></path>
        <g fill="#0093DD"><polygon points="0.0,-9.0 1.8,-4.4 6.7,-4.2 2.9,-1.1 4.1,3.7 0.0,1.0 -4.1,3.7 -2.9,-1.1 -6.7,-4.2 -1.8,-4.4"></polygon></g>
      </g>
  </g>
</g><rect width="1500" height="1000" fill="url(#silk)"></rect><rect width="1500" height="1000" fill="url(#shine)" style="mix-blend-mode:screen"></rect><rect width="1500" height="1000" fill="url(#folds)" style="mix-blend-mode:multiply"></rect><rect width="1500" height="1000" fill="url(#foldsV)" style="mix-blend-mode:multiply"></rect></g></g></svg>