<?xml version="1.0" encoding="UTF-8"?>
<svg xmlns="http://www.w3.org/2000/svg" viewBox="0 0 1500 1000" width="1500" height="1000">
<title>Portugal</title>

<defs>
  <clipPath id="flagClip"><path d="M30,80 C 250,40 500,140 750,90 C 1000,40 1250,150 1470,100 L 1480,920 C 1250,870 1000,960 750,910 C 500,860 250,960 30,920 Z"></path></clipPath>
  
  <linearGradient id="folds" x1="0" y1="0" x2="1" y2="0">
    <stop offset="0%" stop-color="#000" stop-opacity="0.35"></stop>
    <stop offset="6%" stop-color="#000" stop-opacity="0.05"></stop>
    <stop offset="14%" stop-color="#000" stop-opacity="0.30"></stop>
    <stop offset="22%" stop-color="#000" stop-opacity="0"></stop>
    <stop offset="34%" stop-color="#000" stop-opacity="0.18"></stop>
    <stop offset="46%" stop-color="#000" stop-opacity="0"></stop>
    <stop offset="58%" stop-color="#000" stop-opacity="0.22"></stop>
    <stop offset="70%" stop-color="#000" stop-opacity="0"></stop>
    <stop offset="82%" stop-color="#000" stop-opacity="0.20"></stop>
    <stop offset="92%" stop-color="#000" stop-opacity="0"></stop>
    <stop offset="100%" stop-color="#000" stop-opacity="0.30"></stop>
  </linearGradient>
  
  <linearGradient id="foldsV" x1="0" y1="0" x2="0" y2="1">
    <stop offset="0%" stop-color="#000" stop-opacity="0.25"></stop>
    <stop offset="15%" stop-color="#000" stop-opacity="0"></stop>
    <stop offset="50%" stop-color="#000" stop-opacity="0.08"></stop>
    <stop offset="85%" stop-color="#000" stop-opacity="0"></stop>
    <stop offset="100%" stop-color="#000" stop-opacity="0.28"></stop>
  </linearGradient>
  
  <linearGradient id="shine" x1="0" y1="0" x2="1" y2="0.2">
    <stop offset="0%" stop-color="#fff" stop-opacity="0"></stop>
    <stop offset="20%" stop-color="#fff" stop-opacity="0.18"></stop>
    <stop offset="35%" stop-color="#fff" stop-opacity="0"></stop>
    <stop offset="55%" stop-color="#fff" stop-opacity="0.22"></stop>
    <stop offset="70%" stop-color="#fff" stop-opacity="0"></stop>
    <stop offset="88%" stop-color="#fff" stop-opacity="0.15"></stop>
    <stop offset="100%" stop-color="#fff" stop-opacity="0"></stop>
  </linearGradient>
  
  <pattern id="silk" width="14" height="14" patternUnits="userSpaceOnUse" patternTransform="rotate(20)">
    <rect width="14" height="14" fill="transparent"></rect>
    <line x1="0" y1="0" x2="0" y2="14" stroke="#fff" stroke-opacity="0.04" stroke-width="1"></line>
    <line x1="7" y1="0" x2="7" y2="14" stroke="#000" stroke-opacity="0.04" stroke-width="1"></line>
  </pattern>
  
  <filter id="dropshadow" x="-5%" y="-5%" width="110%" height="115%">
    <feGaussianBlur in="SourceAlpha" stdDeviation="6"></feGaussianBlur>
    <feOffset dx="3" dy="6" result="offsetblur"></feOffset>
    <feComponentTransfer><feFuncA type="linear" slope="0.35"></feFuncA></feComponentTransfer>
    <feMerge><feMergeNode></feMergeNode><feMergeNode in="SourceGraphic"></feMergeNode></feMerge>
  </filter>
</defs>
<g filter="url(#dropshadow)">
  <g clip-path="url(#flagClip)">
    
  <rect x="0" y="0" width="600" height="1000" fill="#006633"></rect>
  <rect x="600" y="0" width="900" height="1000" fill="#FF0000"></rect>
  <g transform="translate(600,500)">
    
    <circle cx="0" cy="0" r="170" fill="#FFCC00" stroke="#000" stroke-width="3"></circle>
    <circle cx="0" cy="0" r="170" fill="none" stroke="#A47C00" stroke-width="6"></circle>
    <ellipse cx="0" cy="0" rx="170" ry="60" fill="none" stroke="#A47C00" stroke-width="5"></ellipse>
    <ellipse cx="0" cy="0" rx="60" ry="170" fill="none" stroke="#A47C00" stroke-width="5"></ellipse>
    <ellipse cx="0" cy="0" rx="120" ry="120" fill="none" stroke="#A47C00" stroke-width="3" transform="rotate(45)"></ellipse>
    
    <path d="M-70,-110 L70,-110 L70,40 Q70,90 0,130 Q-70,90 -70,40 Z" fill="#FFFFFF" stroke="#000" stroke-width="3"></path>
    
    <g fill="#003399">
      <rect x="-15" y="-95" width="30" height="60" rx="3"></rect>
      <rect x="-55" y="-50" width="30" height="60" rx="3"></rect>
      <rect x="25" y="-50" width="30" height="60" rx="3"></rect>
      <rect x="-15" y="-5" width="30" height="60" rx="3"></rect>
      <rect x="-15" y="50" width="30" height="50" rx="3"></rect>
    </g>
    
    <g fill="#FFFFFF">
      <circle cx="-10" cy="-85" r="3"></circle><circle cx="0" cy="-85" r="3"></circle><circle cx="10" cy="-85" r="3"></circle>
         <circle cx="-5" cy="-70" r="3"></circle><circle cx="5" cy="-70" r="3"></circle>
         <circle cx="-10" cy="-55" r="3"></circle><circle cx="0" cy="-55" r="3"></circle><circle cx="10" cy="-55" r="3"></circle><circle cx="-50" cy="-40" r="3"></circle><circle cx="-40" cy="-40" r="3"></circle><circle cx="-30" cy="-40" r="3"></circle>
         <circle cx="-45" cy="-25" r="3"></circle><circle cx="-35" cy="-25" r="3"></circle>
         <circle cx="-50" cy="-10" r="3"></circle><circle cx="-40" cy="-10" r="3"></circle><circle cx="-30" cy="-10" r="3"></circle><circle cx="30" cy="-40" r="3"></circle><circle cx="40" cy="-40" r="3"></circle><circle cx="50" cy="-40" r="3"></circle>
         <circle cx="35" cy="-25" r="3"></circle><circle cx="45" cy="-25" r="3"></circle>
         <circle cx="30" cy="-10" r="3"></circle><circle cx="40" cy="-10" r="3"></circle><circle cx="50" cy="-10" r="3"></circle><circle cx="-10" cy="5" r="3"></circle><circle cx="0" cy="5" r="3"></circle><circle cx="10" cy="5" r="3"></circle>
         <circle cx="-5" cy="20" r="3"></circle><circle cx="5" cy="20" r="3"></circle>
         <circle cx="-10" cy="35" r="3"></circle><circle cx="0" cy="35" r="3"></circle><circle cx="10" cy="35" r="3"></circle><circle cx="-10" cy="60" r="3"></circle><circle cx="0" cy="60" r="3"></circle><circle cx="10" cy="60" r="3"></circle>
         <circle cx="-5" cy="75" r="3"></circle><circle cx="5" cy="75" r="3"></circle>
         <circle cx="-10" cy="90" r="3"></circle><circle cx="0" cy="90" r="3"></circle><circle cx="10" cy="90" r="3"></circle>
    </g>
    
    <path d="M-105,-130 L105,-130 L105,55 Q105,110 0,160 Q-105,110 -105,55 Z" fill="none" stroke="#FF0000" stroke-width="20"></path>
    <g fill="#FFCC00" stroke="#000" stroke-width="1">
      <rect x="-98" y="-121" width="16" height="12"></rect>
         <rect x="-98" y="-127" width="4" height="6"></rect>
         <rect x="-92" y="-127" width="4" height="6"></rect>
         <rect x="-86" y="-127" width="4" height="6"></rect><rect x="-8" y="-136" width="16" height="12"></rect>
         <rect x="-8" y="-142" width="4" height="6"></rect>
         <rect x="-2" y="-142" width="4" height="6"></rect>
         <rect x="4" y="-142" width="4" height="6"></rect><rect x="82" y="-121" width="16" height="12"></rect>
         <rect x="82" y="-127" width="4" height="6"></rect>
         <rect x="88" y="-127" width="4" height="6"></rect>
         <rect x="94" y="-127" width="4" height="6"></rect><rect x="-103" y="24" width="16" height="12"></rect>
         <rect x="-103" y="18" width="4" height="6"></rect>
         <rect x="-97" y="18" width="4" height="6"></rect>
         <rect x="-91" y="18" width="4" height="6"></rect><rect x="87" y="24" width="16" height="12"></rect>
         <rect x="87" y="18" width="4" height="6"></rect>
         <rect x="93" y="18" width="4" height="6"></rect>
         <rect x="99" y="18" width="4" height="6"></rect><rect x="-58" y="134" width="16" height="12"></rect>
         <rect x="-58" y="128" width="4" height="6"></rect>
         <rect x="-52" y="128" width="4" height="6"></rect>
         <rect x="-46" y="128" width="4" height="6"></rect><rect x="42" y="134" width="16" height="12"></rect>
         <rect x="42" y="128" width="4" height="6"></rect>
         <rect x="48" y="128" width="4" height="6"></rect>
         <rect x="54" y="128" width="4" height="6"></rect>
    </g>
  </g>
    
  <rect x="0" y="0" width="1500" height="1000" fill="url(#silk)"></rect>
  <rect x="0" y="0" width="1500" height="1000" fill="url(#shine)" style="mix-blend-mode:screen"></rect>
  <rect x="0" y="0" width="1500" height="1000" fill="url(#folds)" style="mix-blend-mode:multiply"></rect>
  <rect x="0" y="0" width="1500" height="1000" fill="url(#foldsV)" style="mix-blend-mode:multiply"></rect>

  </g>
</g>
</svg>