<?xml version="1.0" encoding="UTF-8"?>
<svg xmlns="http://www.w3.org/2000/svg" viewBox="0 0 1500 1000" width="1500" height="1000">
<title>Spain</title><defs>
<clipPath id="flagClip"><path d="M30,80 C 250,40 500,140 750,90 C 1000,40 1250,150 1470,100 L 1480,920 C 1250,870 1000,960 750,910 C 500,860 250,960 30,920 Z"></path></clipPath>
<linearGradient id="folds" x1="0" y1="0" x2="1" y2="0">
<stop offset="0%" stop-color="#000" stop-opacity=".35"></stop><stop offset="6%" stop-color="#000" stop-opacity=".05"></stop><stop offset="14%" stop-color="#000" stop-opacity=".30"></stop><stop offset="22%" stop-color="#000" stop-opacity="0"></stop><stop offset="34%" stop-color="#000" stop-opacity=".18"></stop><stop offset="46%" stop-color="#000" stop-opacity="0"></stop><stop offset="58%" stop-color="#000" stop-opacity=".22"></stop><stop offset="70%" stop-color="#000" stop-opacity="0"></stop><stop offset="82%" stop-color="#000" stop-opacity=".20"></stop><stop offset="92%" stop-color="#000" stop-opacity="0"></stop><stop offset="100%" stop-color="#000" stop-opacity=".30"></stop>
</linearGradient>
<linearGradient id="foldsV" x1="0" y1="0" x2="0" y2="1">
<stop offset="0%" stop-color="#000" stop-opacity=".25"></stop><stop offset="15%" stop-color="#000" stop-opacity="0"></stop><stop offset="50%" stop-color="#000" stop-opacity=".08"></stop><stop offset="85%" stop-color="#000" stop-opacity="0"></stop><stop offset="100%" stop-color="#000" stop-opacity=".28"></stop>
</linearGradient>
<linearGradient id="shine" x1="0" y1="0" x2="1" y2="0.2">
<stop offset="0%" stop-color="#fff" stop-opacity="0"></stop><stop offset="20%" stop-color="#fff" stop-opacity=".18"></stop><stop offset="35%" stop-color="#fff" stop-opacity="0"></stop><stop offset="55%" stop-color="#fff" stop-opacity=".22"></stop><stop offset="70%" stop-color="#fff" stop-opacity="0"></stop><stop offset="88%" stop-color="#fff" stop-opacity=".15"></stop><stop offset="100%" stop-color="#fff" stop-opacity="0"></stop>
</linearGradient>
<pattern id="silk" width="14" height="14" patternUnits="userSpaceOnUse" patternTransform="rotate(20)">
<rect width="14" height="14" fill="transparent"></rect>
<line x1="0" y1="0" x2="0" y2="14" stroke="#fff" stroke-opacity=".04" stroke-width="1"></line>
<line x1="7" y1="0" x2="7" y2="14" stroke="#000" stroke-opacity=".04" stroke-width="1"></line>
</pattern>
<filter id="dropshadow" x="-5%" y="-5%" width="110%" height="115%">
<feGaussianBlur in="SourceAlpha" stdDeviation="6"></feGaussianBlur><feOffset dx="3" dy="6"></feOffset>
<feComponentTransfer><feFuncA type="linear" slope=".35"></feFuncA></feComponentTransfer>
<feMerge><feMergeNode></feMergeNode><feMergeNode in="SourceGraphic"></feMergeNode></feMerge>
</filter>
</defs>
<g filter="url(#dropshadow)"><g clip-path="url(#flagClip)">
<rect width="1500" height="250" fill="#AA151B"></rect>
<rect y="250" width="1500" height="500" fill="#F1BF00"></rect>
<rect y="750" width="1500" height="250" fill="#AA151B"></rect>
<g transform="translate(470,500)">
  
  
  <rect x="-130" y="-130" width="20" height="200" fill="#C9A227"></rect>
  <rect x="-135" y="-140" width="30" height="20" fill="#9B7B1A"></rect>
  <rect x="-135" y="60" width="30" height="20" fill="#9B7B1A"></rect>
  <rect x="110" y="-130" width="20" height="200" fill="#C9A227"></rect>
  <rect x="105" y="-140" width="30" height="20" fill="#9B7B1A"></rect>
  <rect x="105" y="60" width="30" height="20" fill="#9B7B1A"></rect>
  
  <path d="M-160,0 Q-140,-15 -110,0 M-110,0 Q-90,15 -60,0" stroke="#C9302C" stroke-width="6" fill="none"></path>
  <path d="M160,0 Q140,-15 110,0 M110,0 Q90,15 60,0" stroke="#C9302C" stroke-width="6" fill="none"></path>
  
  <path d="M-90,-110 L90,-110 L90,40 Q90,90 0,130 Q-90,90 -90,40 Z" fill="#FFF" stroke="#000" stroke-width="2"></path>
  
  <rect x="-80" y="-100" width="80" height="60" fill="#AA151B"></rect>
  <g fill="#F1BF00">
    <rect x="-70" y="-80" width="60" height="30"></rect>
    <rect x="-72" y="-95" width="14" height="20"></rect>
    <rect x="-50" y="-100" width="14" height="25"></rect>
    <rect x="-28" y="-95" width="14" height="20"></rect>
    <rect x="-65" y="-65" width="6" height="10" fill="#AA151B"></rect>
    <rect x="-45" y="-65" width="6" height="10" fill="#AA151B"></rect>
    <rect x="-25" y="-65" width="6" height="10" fill="#AA151B"></rect>
  </g>
  
  <rect x="0" y="-100" width="80" height="60" fill="#FFF"></rect>
  <g transform="translate(40,-65)" fill="#9B2C2C">
    <ellipse cx="0" cy="0" rx="22" ry="14"></ellipse>
    <circle cx="-15" cy="-12" r="10"></circle>
    <circle cx="-22" cy="-18" r="8"></circle>
    <circle cx="-10" cy="-22" r="6"></circle>
    <circle cx="0" cy="-20" r="6"></circle>
    <path d="M22,0 L34,-8 L36,4 L28,8 Z"></path>
  </g>
  
  <rect x="-80" y="-40" width="80" height="60" fill="#F1BF00"></rect>
  <g fill="#AA151B">
    <rect x="-80" y="-38" width="80" height="8"></rect>
    <rect x="-80" y="-22" width="80" height="8"></rect>
    <rect x="-80" y="-6" width="80" height="8"></rect>
    <rect x="-80" y="10" width="80" height="8"></rect>
  </g>
  
  <rect x="0" y="-40" width="80" height="60" fill="#AA151B"></rect>
  <g stroke="#F1BF00" stroke-width="3" fill="none">
    <line x1="0" y1="-10" x2="80" y2="-10"></line>
    <line x1="40" y1="-40" x2="40" y2="20"></line>
    <line x1="10" y1="-30" x2="70" y2="10"></line>
    <line x1="70" y1="-30" x2="10" y2="10"></line>
  </g>
  
  <circle cx="0" cy="55" r="14" fill="#9B2C2C"></circle>
  <path d="M-3,42 L-2,38 L-1,42 M1,42 L2,38 L3,42" stroke="#3A7D2E" stroke-width="2"></path>
  
  <rect x="-15" y="-5" width="30" height="40" fill="#003399"></rect>
  <path d="M0,5 Q-10,10 -12,25 Q-5,18 0,20 Q5,18 12,25 Q10,10 0,5 Z" fill="#F1BF00"></path>
  
  <g transform="translate(0,-115)">
    <rect x="-50" y="-5" width="100" height="15" fill="#F1BF00" stroke="#9B7B1A" stroke-width="1"></rect>
    <path d="M-50,-5 L-40,-25 L-25,-10 L-10,-30 L0,-15 L10,-30 L25,-10 L40,-25 L50,-5 Z" fill="#F1BF00" stroke="#9B7B1A" stroke-width="1"></path>
    <circle cx="-40" cy="-25" r="3" fill="#9B2C2C"></circle>
    <circle cx="-10" cy="-30" r="3" fill="#003399"></circle>
    <circle cx="10" cy="-30" r="3" fill="#003399"></circle>
    <circle cx="40" cy="-25" r="3" fill="#9B2C2C"></circle>
    <path d="M0,-15 L0,-25 M-3,-22 L3,-22" stroke="#9B7B1A" stroke-width="2"></path>
  </g>
</g><rect width="1500" height="1000" fill="url(#silk)"></rect><rect width="1500" height="1000" fill="url(#shine)" style="mix-blend-mode:screen"></rect><rect width="1500" height="1000" fill="url(#folds)" style="mix-blend-mode:multiply"></rect><rect width="1500" height="1000" fill="url(#foldsV)" style="mix-blend-mode:multiply"></rect></g></g></svg>